<mxfile host="Electron" modified="2023-05-20T07:17:13.130Z" agent="Mozilla/5.0 (Windows NT 10.0; Win64; x64) AppleWebKit/537.36 (KHTML, like Gecko) draw.io/21.2.1 Chrome/112.0.5615.87 Electron/24.1.2 Safari/537.36" etag="V7rJOo9v2GBdWxk_gvF3" version="21.2.1" type="device">
  <diagram name="Page-1" id="GLb_gwshJ0_nP1No4DrY">
    <mxGraphModel dx="2643" dy="-4445" grid="0" gridSize="10" guides="1" tooltips="1" connect="1" arrows="1" fold="1" page="1" pageScale="1" pageWidth="850" pageHeight="1100" math="0" shadow="0">
      <root>
        <mxCell id="0" />
        <mxCell id="1" parent="0" />
        <mxCell id="yWv6oROBVAuWYho2UYFf-6" value="" style="edgeStyle=orthogonalEdgeStyle;rounded=0;orthogonalLoop=1;jettySize=auto;html=1;" edge="1" parent="1" source="yWv6oROBVAuWYho2UYFf-7" target="yWv6oROBVAuWYho2UYFf-10">
          <mxGeometry relative="1" as="geometry" />
        </mxCell>
        <mxCell id="yWv6oROBVAuWYho2UYFf-7" value="Start" style="rounded=1;whiteSpace=wrap;html=1;arcSize=37;fillColor=#dae8fc;strokeColor=#6c8ebf;fontFamily=Calibri;fontSize=12;" vertex="1" parent="1">
          <mxGeometry x="149" y="5600" width="200" height="40" as="geometry" />
        </mxCell>
        <mxCell id="yWv6oROBVAuWYho2UYFf-9" value="" style="edgeStyle=orthogonalEdgeStyle;rounded=0;orthogonalLoop=1;jettySize=auto;html=1;fontFamily=Calibri;fontSize=12;" edge="1" parent="1" source="yWv6oROBVAuWYho2UYFf-10">
          <mxGeometry relative="1" as="geometry">
            <mxPoint x="249" y="5835" as="targetPoint" />
          </mxGeometry>
        </mxCell>
        <mxCell id="yWv6oROBVAuWYho2UYFf-10" value="&lt;font style=&quot;font-size: 12px;&quot;&gt;Increment the Ticks_OVFs&lt;/font&gt;" style="rounded=0;whiteSpace=wrap;html=1;fillColor=#d5e8d4;strokeColor=#82b366;fontFamily=Calibri;fontSize=12;" vertex="1" parent="1">
          <mxGeometry x="164" y="5696.5" width="170" height="80" as="geometry" />
        </mxCell>
        <mxCell id="yWv6oROBVAuWYho2UYFf-13" value="&lt;span style=&quot;font-size: 12px;&quot;&gt;End&lt;/span&gt;" style="rounded=1;whiteSpace=wrap;html=1;fillColor=#d5e8d4;strokeColor=#82b366;fontFamily=Calibri;fontSize=12;" vertex="1" parent="1">
          <mxGeometry x="175.63" y="5834" width="146.75" height="57" as="geometry" />
        </mxCell>
        <mxCell id="yWv6oROBVAuWYho2UYFf-18" value="ISR(TIM1_OVF_INT)" style="text;whiteSpace=wrap;html=1;fontFamily=Calibri;fontSize=12;align=center;" vertex="1" parent="1">
          <mxGeometry x="200" y="5569" width="98" height="22" as="geometry" />
        </mxCell>
        <mxCell id="yWv6oROBVAuWYho2UYFf-19" value="" style="edgeStyle=orthogonalEdgeStyle;rounded=0;orthogonalLoop=1;jettySize=auto;html=1;fontFamily=Calibri;fontSize=12;" edge="1" parent="1" source="yWv6oROBVAuWYho2UYFf-20" target="yWv6oROBVAuWYho2UYFf-23">
          <mxGeometry relative="1" as="geometry" />
        </mxCell>
        <mxCell id="yWv6oROBVAuWYho2UYFf-20" value="" style="rounded=1;whiteSpace=wrap;html=1;arcSize=37;fillColor=#dae8fc;strokeColor=#6c8ebf;fontFamily=Calibri;fontSize=12;" vertex="1" parent="1">
          <mxGeometry x="-642" y="5600" width="171" height="60" as="geometry" />
        </mxCell>
        <mxCell id="yWv6oROBVAuWYho2UYFf-21" value="" style="edgeStyle=orthogonalEdgeStyle;rounded=0;orthogonalLoop=1;jettySize=auto;html=1;fontFamily=Calibri;fontSize=12;" edge="1" parent="1" source="yWv6oROBVAuWYho2UYFf-23">
          <mxGeometry relative="1" as="geometry">
            <mxPoint x="-376" y="5810" as="targetPoint" />
          </mxGeometry>
        </mxCell>
        <mxCell id="yWv6oROBVAuWYho2UYFf-22" value="" style="edgeStyle=orthogonalEdgeStyle;rounded=0;orthogonalLoop=1;jettySize=auto;html=1;entryX=0.5;entryY=0;entryDx=0;entryDy=0;fontFamily=Calibri;fontSize=12;" edge="1" parent="1" source="yWv6oROBVAuWYho2UYFf-23" target="yWv6oROBVAuWYho2UYFf-30">
          <mxGeometry relative="1" as="geometry">
            <mxPoint x="-556" y="5960" as="targetPoint" />
          </mxGeometry>
        </mxCell>
        <mxCell id="yWv6oROBVAuWYho2UYFf-23" value="&lt;font style=&quot;font-size: 12px;&quot;&gt;interrupt&lt;br style=&quot;font-size: 12px;&quot;&gt;Enabled&lt;/font&gt;" style="rhombus;whiteSpace=wrap;html=1;fillColor=#fff2cc;strokeColor=#d6b656;fontFamily=Calibri;fontSize=12;" vertex="1" parent="1">
          <mxGeometry x="-621" y="5740" width="130" height="140" as="geometry" />
        </mxCell>
        <mxCell id="yWv6oROBVAuWYho2UYFf-24" value="&lt;font style=&quot;font-size: 12px;&quot;&gt;&amp;nbsp; &amp;nbsp;Start&lt;span style=&quot;white-space: pre; font-size: 12px;&quot;&gt; &lt;/span&gt;&lt;/font&gt;" style="text;whiteSpace=wrap;html=1;align=center;fontFamily=Calibri;fontSize=12;" vertex="1" parent="1">
          <mxGeometry x="-621" y="5610" width="126" height="40" as="geometry" />
        </mxCell>
        <mxCell id="yWv6oROBVAuWYho2UYFf-25" value="&lt;font style=&quot;font-size: 12px;&quot;&gt;No&lt;/font&gt;" style="text;html=1;strokeColor=none;fillColor=none;align=center;verticalAlign=middle;whiteSpace=wrap;rounded=0;fontFamily=Calibri;fontSize=12;" vertex="1" parent="1">
          <mxGeometry x="-631" y="5910" width="60" height="30" as="geometry" />
        </mxCell>
        <mxCell id="yWv6oROBVAuWYho2UYFf-26" value="&lt;font style=&quot;font-size: 12px;&quot;&gt;Yes&lt;br style=&quot;font-size: 12px;&quot;&gt;&lt;/font&gt;" style="text;html=1;strokeColor=none;fillColor=none;align=center;verticalAlign=middle;whiteSpace=wrap;rounded=0;fontFamily=Calibri;fontSize=12;" vertex="1" parent="1">
          <mxGeometry x="-481" y="5780" width="60" height="30" as="geometry" />
        </mxCell>
        <mxCell id="yWv6oROBVAuWYho2UYFf-27" value="" style="edgeStyle=orthogonalEdgeStyle;rounded=0;orthogonalLoop=1;jettySize=auto;html=1;fontFamily=Calibri;fontSize=12;" edge="1" parent="1" source="yWv6oROBVAuWYho2UYFf-28" target="yWv6oROBVAuWYho2UYFf-32">
          <mxGeometry relative="1" as="geometry">
            <Array as="points">
              <mxPoint x="-145" y="5803" />
              <mxPoint x="-145" y="5803" />
            </Array>
          </mxGeometry>
        </mxCell>
        <mxCell id="yWv6oROBVAuWYho2UYFf-28" value="&lt;font style=&quot;font-size: 12px;&quot;&gt;Set the interrupt global bit&lt;/font&gt;" style="rounded=0;whiteSpace=wrap;html=1;fillColor=#d5e8d4;strokeColor=#82b366;fontFamily=Calibri;fontSize=12;" vertex="1" parent="1">
          <mxGeometry x="-371" y="5740" width="150" height="127" as="geometry" />
        </mxCell>
        <mxCell id="yWv6oROBVAuWYho2UYFf-29" value="" style="edgeStyle=orthogonalEdgeStyle;rounded=0;orthogonalLoop=1;jettySize=auto;html=1;fontFamily=Calibri;fontSize=12;" edge="1" parent="1" source="yWv6oROBVAuWYho2UYFf-30">
          <mxGeometry relative="1" as="geometry">
            <mxPoint x="-556" y="6180" as="targetPoint" />
          </mxGeometry>
        </mxCell>
        <mxCell id="yWv6oROBVAuWYho2UYFf-30" value="&lt;font style=&quot;font-size: 12px;&quot;&gt;Set the normal mode configurations&lt;/font&gt;" style="rounded=0;whiteSpace=wrap;html=1;fillColor=#d5e8d4;strokeColor=#82b366;fontFamily=Calibri;fontSize=12;" vertex="1" parent="1">
          <mxGeometry x="-631" y="6000" width="150" height="75" as="geometry" />
        </mxCell>
        <mxCell id="yWv6oROBVAuWYho2UYFf-31" value="" style="edgeStyle=orthogonalEdgeStyle;rounded=0;orthogonalLoop=1;jettySize=auto;html=1;fontFamily=Calibri;fontSize=12;" edge="1" parent="1" source="yWv6oROBVAuWYho2UYFf-32" target="yWv6oROBVAuWYho2UYFf-30">
          <mxGeometry relative="1" as="geometry">
            <mxPoint x="-441" y="6060" as="targetPoint" />
            <Array as="points">
              <mxPoint x="-51" y="6060" />
            </Array>
          </mxGeometry>
        </mxCell>
        <mxCell id="yWv6oROBVAuWYho2UYFf-32" value="&lt;font style=&quot;font-size: 12px;&quot;&gt;Enable the interrupt bit for timer overflow&lt;/font&gt;" style="whiteSpace=wrap;html=1;fillColor=#d5e8d4;strokeColor=#82b366;rounded=0;fontFamily=Calibri;fontSize=12;" vertex="1" parent="1">
          <mxGeometry x="-130" y="5753" width="176" height="104" as="geometry" />
        </mxCell>
        <mxCell id="yWv6oROBVAuWYho2UYFf-33" value="&lt;font style=&quot;font-size: 12px;&quot;&gt;Return &lt;br style=&quot;font-size: 12px;&quot;&gt;TIMER_OK&lt;/font&gt;" style="rounded=1;whiteSpace=wrap;html=1;fillColor=#d5e8d4;strokeColor=#82b366;fontFamily=Calibri;fontSize=12;" vertex="1" parent="1">
          <mxGeometry x="-638" y="6182" width="177" height="75" as="geometry" />
        </mxCell>
        <mxCell id="yWv6oROBVAuWYho2UYFf-64" value="" style="edgeStyle=orthogonalEdgeStyle;rounded=0;orthogonalLoop=1;jettySize=auto;html=1;fontFamily=Calibri;fontSize=12;" edge="1" parent="1" source="yWv6oROBVAuWYho2UYFf-65" target="yWv6oROBVAuWYho2UYFf-68">
          <mxGeometry relative="1" as="geometry" />
        </mxCell>
        <mxCell id="yWv6oROBVAuWYho2UYFf-65" value="Start" style="rounded=1;whiteSpace=wrap;html=1;arcSize=37;fillColor=#dae8fc;strokeColor=#6c8ebf;fontFamily=Calibri;fontSize=12;" vertex="1" parent="1">
          <mxGeometry x="-638" y="6499" width="200" height="40" as="geometry" />
        </mxCell>
        <mxCell id="yWv6oROBVAuWYho2UYFf-66" value="" style="edgeStyle=orthogonalEdgeStyle;rounded=0;orthogonalLoop=1;jettySize=auto;html=1;fontFamily=Calibri;fontSize=12;" edge="1" parent="1" source="yWv6oROBVAuWYho2UYFf-68" target="yWv6oROBVAuWYho2UYFf-72">
          <mxGeometry relative="1" as="geometry" />
        </mxCell>
        <mxCell id="yWv6oROBVAuWYho2UYFf-67" value="" style="edgeStyle=orthogonalEdgeStyle;rounded=0;orthogonalLoop=1;jettySize=auto;html=1;fontFamily=Calibri;fontSize=12;" edge="1" parent="1" source="yWv6oROBVAuWYho2UYFf-68" target="yWv6oROBVAuWYho2UYFf-95">
          <mxGeometry relative="1" as="geometry" />
        </mxCell>
        <mxCell id="yWv6oROBVAuWYho2UYFf-68" value="&lt;span style=&quot;font-size: 12px;&quot;&gt;Prescaler == 1&lt;/span&gt;" style="rhombus;whiteSpace=wrap;html=1;fillColor=#fff2cc;strokeColor=#d6b656;fontFamily=Calibri;fontSize=12;" vertex="1" parent="1">
          <mxGeometry x="-593" y="6594" width="110" height="140" as="geometry" />
        </mxCell>
        <mxCell id="yWv6oROBVAuWYho2UYFf-69" value="&lt;font style=&quot;font-size: 12px;&quot;&gt;TMR_tmr1Start&lt;/font&gt;" style="text;whiteSpace=wrap;html=1;fontFamily=Calibri;fontSize=12;" vertex="1" parent="1">
          <mxGeometry x="-576" y="6459" width="172" height="40" as="geometry" />
        </mxCell>
        <mxCell id="yWv6oROBVAuWYho2UYFf-70" value="" style="edgeStyle=orthogonalEdgeStyle;rounded=0;orthogonalLoop=1;jettySize=auto;html=1;fontFamily=Calibri;fontSize=12;" edge="1" parent="1" source="yWv6oROBVAuWYho2UYFf-72" target="yWv6oROBVAuWYho2UYFf-75">
          <mxGeometry relative="1" as="geometry" />
        </mxCell>
        <mxCell id="yWv6oROBVAuWYho2UYFf-71" value="" style="edgeStyle=orthogonalEdgeStyle;rounded=0;orthogonalLoop=1;jettySize=auto;html=1;fontFamily=Calibri;fontSize=12;" edge="1" parent="1" source="yWv6oROBVAuWYho2UYFf-72" target="yWv6oROBVAuWYho2UYFf-102">
          <mxGeometry relative="1" as="geometry" />
        </mxCell>
        <mxCell id="yWv6oROBVAuWYho2UYFf-72" value="&lt;span style=&quot;font-size: 12px;&quot;&gt;Prescaler == 8&lt;/span&gt;" style="rhombus;whiteSpace=wrap;html=1;fillColor=#fff2cc;strokeColor=#d6b656;fontFamily=Calibri;fontSize=12;" vertex="1" parent="1">
          <mxGeometry x="-594" y="6791.5" width="110" height="140" as="geometry" />
        </mxCell>
        <mxCell id="yWv6oROBVAuWYho2UYFf-73" value="" style="edgeStyle=orthogonalEdgeStyle;rounded=0;orthogonalLoop=1;jettySize=auto;html=1;fontFamily=Calibri;fontSize=12;" edge="1" parent="1" source="yWv6oROBVAuWYho2UYFf-75" target="yWv6oROBVAuWYho2UYFf-77">
          <mxGeometry relative="1" as="geometry" />
        </mxCell>
        <mxCell id="yWv6oROBVAuWYho2UYFf-74" value="" style="edgeStyle=orthogonalEdgeStyle;rounded=0;orthogonalLoop=1;jettySize=auto;html=1;fontFamily=Calibri;fontSize=12;" edge="1" parent="1" source="yWv6oROBVAuWYho2UYFf-75" target="yWv6oROBVAuWYho2UYFf-101">
          <mxGeometry relative="1" as="geometry" />
        </mxCell>
        <mxCell id="yWv6oROBVAuWYho2UYFf-75" value="&lt;span style=&quot;font-size: 12px;&quot;&gt;Prescaler == 32&lt;/span&gt;" style="rhombus;whiteSpace=wrap;html=1;fillColor=#fff2cc;strokeColor=#d6b656;fontFamily=Calibri;fontSize=12;" vertex="1" parent="1">
          <mxGeometry x="-594" y="6980.5" width="110" height="140" as="geometry" />
        </mxCell>
        <mxCell id="yWv6oROBVAuWYho2UYFf-76" value="" style="edgeStyle=orthogonalEdgeStyle;rounded=0;orthogonalLoop=1;jettySize=auto;html=1;fontFamily=Calibri;fontSize=12;" edge="1" parent="1" source="yWv6oROBVAuWYho2UYFf-77" target="yWv6oROBVAuWYho2UYFf-100">
          <mxGeometry relative="1" as="geometry" />
        </mxCell>
        <mxCell id="yWv6oROBVAuWYho2UYFf-77" value="&lt;span style=&quot;font-size: 12px;&quot;&gt;Prescaler == 64&lt;/span&gt;" style="rhombus;whiteSpace=wrap;html=1;fillColor=#fff2cc;strokeColor=#d6b656;fontFamily=Calibri;fontSize=12;" vertex="1" parent="1">
          <mxGeometry x="-593" y="7180.5" width="110" height="140" as="geometry" />
        </mxCell>
        <mxCell id="yWv6oROBVAuWYho2UYFf-78" value="" style="edgeStyle=orthogonalEdgeStyle;rounded=0;orthogonalLoop=1;jettySize=auto;html=1;fontFamily=Calibri;fontSize=12;" edge="1" parent="1" source="yWv6oROBVAuWYho2UYFf-80" target="yWv6oROBVAuWYho2UYFf-83">
          <mxGeometry relative="1" as="geometry" />
        </mxCell>
        <mxCell id="yWv6oROBVAuWYho2UYFf-79" value="" style="edgeStyle=orthogonalEdgeStyle;rounded=0;orthogonalLoop=1;jettySize=auto;html=1;fontFamily=Calibri;fontSize=12;" edge="1" parent="1" source="yWv6oROBVAuWYho2UYFf-80" target="yWv6oROBVAuWYho2UYFf-98">
          <mxGeometry relative="1" as="geometry" />
        </mxCell>
        <mxCell id="yWv6oROBVAuWYho2UYFf-80" value="&lt;span style=&quot;font-size: 12px;&quot;&gt;Prescaler == 128&lt;/span&gt;" style="rhombus;whiteSpace=wrap;html=1;fillColor=#fff2cc;strokeColor=#d6b656;fontFamily=Calibri;fontSize=12;" vertex="1" parent="1">
          <mxGeometry x="127" y="6672" width="110" height="140" as="geometry" />
        </mxCell>
        <mxCell id="yWv6oROBVAuWYho2UYFf-81" value="" style="edgeStyle=orthogonalEdgeStyle;rounded=0;orthogonalLoop=1;jettySize=auto;html=1;fontFamily=Calibri;fontSize=12;" edge="1" parent="1" source="yWv6oROBVAuWYho2UYFf-83" target="yWv6oROBVAuWYho2UYFf-86">
          <mxGeometry relative="1" as="geometry" />
        </mxCell>
        <mxCell id="yWv6oROBVAuWYho2UYFf-82" value="" style="edgeStyle=orthogonalEdgeStyle;rounded=0;orthogonalLoop=1;jettySize=auto;html=1;fontFamily=Calibri;fontSize=12;" edge="1" parent="1" source="yWv6oROBVAuWYho2UYFf-83" target="yWv6oROBVAuWYho2UYFf-97">
          <mxGeometry relative="1" as="geometry" />
        </mxCell>
        <mxCell id="yWv6oROBVAuWYho2UYFf-83" value="&lt;span style=&quot;font-size: 12px;&quot;&gt;Prescaler == 256&lt;/span&gt;" style="rhombus;whiteSpace=wrap;html=1;fillColor=#fff2cc;strokeColor=#d6b656;fontFamily=Calibri;fontSize=12;" vertex="1" parent="1">
          <mxGeometry x="127" y="6861" width="110" height="140" as="geometry" />
        </mxCell>
        <mxCell id="yWv6oROBVAuWYho2UYFf-84" value="" style="edgeStyle=orthogonalEdgeStyle;rounded=0;orthogonalLoop=1;jettySize=auto;html=1;fontFamily=Calibri;fontSize=12;" edge="1" parent="1" source="yWv6oROBVAuWYho2UYFf-86" target="yWv6oROBVAuWYho2UYFf-96">
          <mxGeometry relative="1" as="geometry" />
        </mxCell>
        <mxCell id="yWv6oROBVAuWYho2UYFf-85" value="" style="edgeStyle=orthogonalEdgeStyle;rounded=0;orthogonalLoop=1;jettySize=auto;html=1;fontFamily=Calibri;fontSize=12;" edge="1" parent="1" source="yWv6oROBVAuWYho2UYFf-86">
          <mxGeometry relative="1" as="geometry">
            <mxPoint x="184" y="7327.62" as="targetPoint" />
          </mxGeometry>
        </mxCell>
        <mxCell id="yWv6oROBVAuWYho2UYFf-86" value="&lt;span style=&quot;font-size: 12px;&quot;&gt;Prescaler == 1024&lt;/span&gt;" style="rhombus;whiteSpace=wrap;html=1;fillColor=#fff2cc;strokeColor=#d6b656;fontFamily=Calibri;fontSize=12;" vertex="1" parent="1">
          <mxGeometry x="128" y="7061" width="110" height="140" as="geometry" />
        </mxCell>
        <mxCell id="yWv6oROBVAuWYho2UYFf-87" value="&lt;font style=&quot;font-size: 12px;&quot;&gt;No&lt;/font&gt;" style="text;html=1;strokeColor=none;fillColor=none;align=center;verticalAlign=middle;whiteSpace=wrap;rounded=0;fontFamily=Calibri;fontSize=12;" vertex="1" parent="1">
          <mxGeometry x="-602" y="6745" width="60" height="30" as="geometry" />
        </mxCell>
        <mxCell id="yWv6oROBVAuWYho2UYFf-88" value="&lt;font style=&quot;font-size: 12px;&quot;&gt;Yes&lt;br style=&quot;font-size: 12px;&quot;&gt;&lt;/font&gt;" style="text;html=1;strokeColor=none;fillColor=none;align=center;verticalAlign=middle;whiteSpace=wrap;rounded=0;fontFamily=Calibri;fontSize=12;" vertex="1" parent="1">
          <mxGeometry x="-477" y="6626.5" width="60" height="30" as="geometry" />
        </mxCell>
        <mxCell id="yWv6oROBVAuWYho2UYFf-89" value="&lt;font style=&quot;font-size: 12px;&quot;&gt;No&lt;/font&gt;" style="text;html=1;strokeColor=none;fillColor=none;align=center;verticalAlign=middle;whiteSpace=wrap;rounded=0;fontFamily=Calibri;fontSize=12;" vertex="1" parent="1">
          <mxGeometry x="-597" y="6937" width="60" height="30" as="geometry" />
        </mxCell>
        <mxCell id="yWv6oROBVAuWYho2UYFf-90" value="&lt;font style=&quot;font-size: 12px;&quot;&gt;No&lt;/font&gt;" style="text;html=1;strokeColor=none;fillColor=none;align=center;verticalAlign=middle;whiteSpace=wrap;rounded=0;fontFamily=Calibri;fontSize=12;" vertex="1" parent="1">
          <mxGeometry x="-607" y="7140.5" width="60" height="30" as="geometry" />
        </mxCell>
        <mxCell id="yWv6oROBVAuWYho2UYFf-91" value="&lt;font style=&quot;font-size: 12px;&quot;&gt;No&lt;/font&gt;" style="text;html=1;strokeColor=none;fillColor=none;align=center;verticalAlign=middle;whiteSpace=wrap;rounded=0;fontFamily=Calibri;fontSize=12;" vertex="1" parent="1">
          <mxGeometry x="-602" y="7329.5" width="60" height="30" as="geometry" />
        </mxCell>
        <mxCell id="yWv6oROBVAuWYho2UYFf-92" value="&lt;font style=&quot;font-size: 12px;&quot;&gt;No&lt;/font&gt;" style="text;html=1;strokeColor=none;fillColor=none;align=center;verticalAlign=middle;whiteSpace=wrap;rounded=0;fontFamily=Calibri;fontSize=12;" vertex="1" parent="1">
          <mxGeometry x="123" y="6822.62" width="60" height="30" as="geometry" />
        </mxCell>
        <mxCell id="yWv6oROBVAuWYho2UYFf-93" value="&lt;font style=&quot;font-size: 12px;&quot;&gt;No&lt;/font&gt;" style="text;html=1;strokeColor=none;fillColor=none;align=center;verticalAlign=middle;whiteSpace=wrap;rounded=0;fontFamily=Calibri;fontSize=12;" vertex="1" parent="1">
          <mxGeometry x="118" y="7011.12" width="60" height="30" as="geometry" />
        </mxCell>
        <mxCell id="yWv6oROBVAuWYho2UYFf-94" value="&lt;font style=&quot;font-size: 12px;&quot;&gt;No&lt;/font&gt;" style="text;html=1;strokeColor=none;fillColor=none;align=center;verticalAlign=middle;whiteSpace=wrap;rounded=0;fontFamily=Calibri;fontSize=12;" vertex="1" parent="1">
          <mxGeometry x="113" y="7201" width="60" height="30" as="geometry" />
        </mxCell>
        <mxCell id="yWv6oROBVAuWYho2UYFf-95" value="Set the equivalent bits on TCCR1A/B" style="rounded=0;whiteSpace=wrap;html=1;fillColor=#d5e8d4;strokeColor=#82b366;fontFamily=Calibri;fontSize=12;" vertex="1" parent="1">
          <mxGeometry x="-392" y="6626.5" width="150" height="75" as="geometry" />
        </mxCell>
        <mxCell id="yWv6oROBVAuWYho2UYFf-96" value="Set the equivalent bits on TCCR1A/B" style="rounded=0;whiteSpace=wrap;html=1;fillColor=#d5e8d4;strokeColor=#82b366;fontFamily=Calibri;fontSize=12;" vertex="1" parent="1">
          <mxGeometry x="338" y="7093.5" width="150" height="75" as="geometry" />
        </mxCell>
        <mxCell id="yWv6oROBVAuWYho2UYFf-97" value="Set the equivalent bits on TCCR1A/B" style="rounded=0;whiteSpace=wrap;html=1;fillColor=#d5e8d4;strokeColor=#82b366;fontFamily=Calibri;fontSize=12;" vertex="1" parent="1">
          <mxGeometry x="338" y="6893.5" width="150" height="75" as="geometry" />
        </mxCell>
        <mxCell id="yWv6oROBVAuWYho2UYFf-98" value="Set the equivalent bits on TCCR1A/B" style="rounded=0;whiteSpace=wrap;html=1;fillColor=#d5e8d4;strokeColor=#82b366;fontFamily=Calibri;fontSize=12;" vertex="1" parent="1">
          <mxGeometry x="333" y="6704.5" width="150" height="75" as="geometry" />
        </mxCell>
        <mxCell id="yWv6oROBVAuWYho2UYFf-99" value="" style="edgeStyle=orthogonalEdgeStyle;rounded=0;orthogonalLoop=1;jettySize=auto;html=1;fontFamily=Calibri;fontSize=12;" edge="1" parent="1" source="yWv6oROBVAuWYho2UYFf-100">
          <mxGeometry relative="1" as="geometry">
            <mxPoint x="-64" y="7060" as="targetPoint" />
          </mxGeometry>
        </mxCell>
        <mxCell id="yWv6oROBVAuWYho2UYFf-100" value="Set the equivalent bits on TCCR1A/B" style="rounded=0;whiteSpace=wrap;html=1;fillColor=#d5e8d4;strokeColor=#82b366;fontFamily=Calibri;fontSize=12;" vertex="1" parent="1">
          <mxGeometry x="-382" y="7213" width="150" height="75" as="geometry" />
        </mxCell>
        <mxCell id="yWv6oROBVAuWYho2UYFf-101" value="Set the equivalent bits on TCCR1A/B" style="rounded=0;whiteSpace=wrap;html=1;fillColor=#d5e8d4;strokeColor=#82b366;fontFamily=Calibri;fontSize=12;" vertex="1" parent="1">
          <mxGeometry x="-392" y="7013" width="150" height="75" as="geometry" />
        </mxCell>
        <mxCell id="yWv6oROBVAuWYho2UYFf-102" value="Set the equivalent bits on TCCR1A/B" style="rounded=0;whiteSpace=wrap;html=1;fillColor=#d5e8d4;strokeColor=#82b366;fontFamily=Calibri;fontSize=12;" vertex="1" parent="1">
          <mxGeometry x="-392" y="6824" width="150" height="75" as="geometry" />
        </mxCell>
        <mxCell id="yWv6oROBVAuWYho2UYFf-103" value="" style="endArrow=none;html=1;rounded=0;entryX=1;entryY=0.5;entryDx=0;entryDy=0;fontFamily=Calibri;fontSize=12;" edge="1" parent="1" target="yWv6oROBVAuWYho2UYFf-95">
          <mxGeometry width="50" height="50" relative="1" as="geometry">
            <mxPoint x="652" y="7353" as="sourcePoint" />
            <mxPoint x="-205" y="6804.67" as="targetPoint" />
            <Array as="points">
              <mxPoint x="658" y="6664" />
              <mxPoint x="-67" y="6661" />
            </Array>
          </mxGeometry>
        </mxCell>
        <mxCell id="yWv6oROBVAuWYho2UYFf-104" value="" style="endArrow=classic;html=1;rounded=0;entryX=1;entryY=0.438;entryDx=0;entryDy=0;entryPerimeter=0;fontFamily=Calibri;fontSize=12;" edge="1" parent="1">
          <mxGeometry width="50" height="50" relative="1" as="geometry">
            <mxPoint x="653" y="7356.62" as="sourcePoint" />
            <mxPoint x="483" y="7357.079999999999" as="targetPoint" />
            <Array as="points" />
          </mxGeometry>
        </mxCell>
        <mxCell id="yWv6oROBVAuWYho2UYFf-105" value="" style="edgeStyle=orthogonalEdgeStyle;rounded=0;orthogonalLoop=1;jettySize=auto;html=1;exitX=1.009;exitY=0.649;exitDx=0;exitDy=0;exitPerimeter=0;fontFamily=Calibri;fontSize=12;" edge="1" parent="1" source="yWv6oROBVAuWYho2UYFf-101">
          <mxGeometry relative="1" as="geometry">
            <mxPoint x="-234.5" y="7061.58" as="sourcePoint" />
            <mxPoint x="-62" y="6868" as="targetPoint" />
          </mxGeometry>
        </mxCell>
        <mxCell id="yWv6oROBVAuWYho2UYFf-106" value="" style="edgeStyle=orthogonalEdgeStyle;rounded=0;orthogonalLoop=1;jettySize=auto;html=1;fontFamily=Calibri;fontSize=12;" edge="1" parent="1">
          <mxGeometry relative="1" as="geometry">
            <mxPoint x="488" y="7142.12" as="sourcePoint" />
            <mxPoint x="653" y="7142.12" as="targetPoint" />
          </mxGeometry>
        </mxCell>
        <mxCell id="yWv6oROBVAuWYho2UYFf-107" value="" style="edgeStyle=orthogonalEdgeStyle;rounded=0;orthogonalLoop=1;jettySize=auto;html=1;fontFamily=Calibri;fontSize=12;" edge="1" parent="1">
          <mxGeometry relative="1" as="geometry">
            <mxPoint x="488" y="6940.58" as="sourcePoint" />
            <mxPoint x="653" y="6940.58" as="targetPoint" />
          </mxGeometry>
        </mxCell>
        <mxCell id="yWv6oROBVAuWYho2UYFf-108" value="" style="edgeStyle=orthogonalEdgeStyle;rounded=0;orthogonalLoop=1;jettySize=auto;html=1;exitX=1;exitY=0.622;exitDx=0;exitDy=0;exitPerimeter=0;fontFamily=Calibri;fontSize=12;" edge="1" parent="1" source="yWv6oROBVAuWYho2UYFf-98">
          <mxGeometry relative="1" as="geometry">
            <mxPoint x="488" y="6751.12" as="sourcePoint" />
            <mxPoint x="653" y="6751.12" as="targetPoint" />
          </mxGeometry>
        </mxCell>
        <mxCell id="yWv6oROBVAuWYho2UYFf-109" value="" style="edgeStyle=orthogonalEdgeStyle;rounded=0;orthogonalLoop=1;jettySize=auto;html=1;exitX=1.02;exitY=0.614;exitDx=0;exitDy=0;exitPerimeter=0;fontFamily=Calibri;fontSize=12;" edge="1" parent="1" source="yWv6oROBVAuWYho2UYFf-102">
          <mxGeometry relative="1" as="geometry">
            <mxPoint x="-234.5" y="6871" as="sourcePoint" />
            <mxPoint x="-62" y="6660" as="targetPoint" />
          </mxGeometry>
        </mxCell>
        <mxCell id="yWv6oROBVAuWYho2UYFf-110" value="&lt;font style=&quot;font-size: 12px;&quot;&gt;Yes&lt;br style=&quot;font-size: 12px;&quot;&gt;&lt;/font&gt;" style="text;html=1;strokeColor=none;fillColor=none;align=center;verticalAlign=middle;whiteSpace=wrap;rounded=0;fontFamily=Calibri;fontSize=12;" vertex="1" parent="1">
          <mxGeometry x="238" y="6701.12" width="60" height="30" as="geometry" />
        </mxCell>
        <mxCell id="yWv6oROBVAuWYho2UYFf-111" value="&lt;font style=&quot;font-size: 12px;&quot;&gt;Yes&lt;br style=&quot;font-size: 12px;&quot;&gt;&lt;/font&gt;" style="text;html=1;strokeColor=none;fillColor=none;align=center;verticalAlign=middle;whiteSpace=wrap;rounded=0;fontFamily=Calibri;fontSize=12;" vertex="1" parent="1">
          <mxGeometry x="-476" y="7207" width="60" height="30" as="geometry" />
        </mxCell>
        <mxCell id="yWv6oROBVAuWYho2UYFf-112" value="&lt;font style=&quot;font-size: 12px;&quot;&gt;Yes&lt;br style=&quot;font-size: 12px;&quot;&gt;&lt;/font&gt;" style="text;html=1;strokeColor=none;fillColor=none;align=center;verticalAlign=middle;whiteSpace=wrap;rounded=0;fontFamily=Calibri;fontSize=12;" vertex="1" parent="1">
          <mxGeometry x="-487" y="6827" width="60" height="30" as="geometry" />
        </mxCell>
        <mxCell id="yWv6oROBVAuWYho2UYFf-113" value="&lt;font style=&quot;font-size: 12px;&quot;&gt;Yes&lt;br style=&quot;font-size: 12px;&quot;&gt;&lt;/font&gt;" style="text;html=1;strokeColor=none;fillColor=none;align=center;verticalAlign=middle;whiteSpace=wrap;rounded=0;fontFamily=Calibri;fontSize=12;" vertex="1" parent="1">
          <mxGeometry x="248" y="7093.5" width="60" height="30" as="geometry" />
        </mxCell>
        <mxCell id="yWv6oROBVAuWYho2UYFf-114" value="&lt;font style=&quot;font-size: 12px;&quot;&gt;Yes&lt;br style=&quot;font-size: 12px;&quot;&gt;&lt;/font&gt;" style="text;html=1;strokeColor=none;fillColor=none;align=center;verticalAlign=middle;whiteSpace=wrap;rounded=0;fontFamily=Calibri;fontSize=12;" vertex="1" parent="1">
          <mxGeometry x="243" y="6895.87" width="60" height="30" as="geometry" />
        </mxCell>
        <mxCell id="yWv6oROBVAuWYho2UYFf-115" value="Return &lt;br style=&quot;font-size: 12px;&quot;&gt;TIMER_OK" style="rounded=1;whiteSpace=wrap;html=1;fillColor=#d5e8d4;strokeColor=#82b366;fontFamily=Calibri;fontSize=12;" vertex="1" parent="1">
          <mxGeometry x="363" y="7336.62" width="120" height="48" as="geometry" />
        </mxCell>
        <mxCell id="yWv6oROBVAuWYho2UYFf-116" value="Return&amp;nbsp;&lt;br style=&quot;font-size: 12px;&quot;&gt;TIMER_ERROR" style="rounded=1;whiteSpace=wrap;html=1;fillColor=#f8cecc;strokeColor=#b85450;fontFamily=Calibri;fontSize=12;" vertex="1" parent="1">
          <mxGeometry x="123" y="7327.62" width="120" height="47.5" as="geometry" />
        </mxCell>
        <mxCell id="yWv6oROBVAuWYho2UYFf-117" value="" style="endArrow=classic;html=1;rounded=0;exitX=0.5;exitY=1;exitDx=0;exitDy=0;entryX=0;entryY=0.5;entryDx=0;entryDy=0;" edge="1" parent="1" source="yWv6oROBVAuWYho2UYFf-77" target="yWv6oROBVAuWYho2UYFf-80">
          <mxGeometry width="50" height="50" relative="1" as="geometry">
            <mxPoint x="-240" y="7173" as="sourcePoint" />
            <mxPoint x="61" y="7318" as="targetPoint" />
            <Array as="points">
              <mxPoint x="-3" y="7321" />
              <mxPoint x="2" y="6742" />
            </Array>
          </mxGeometry>
        </mxCell>
        <mxCell id="yWv6oROBVAuWYho2UYFf-118" value="" style="edgeStyle=orthogonalEdgeStyle;rounded=0;orthogonalLoop=1;jettySize=auto;html=1;fontFamily=Calibri;fontSize=12;" edge="1" parent="1" source="yWv6oROBVAuWYho2UYFf-119">
          <mxGeometry relative="1" as="geometry">
            <mxPoint x="501.0500000000002" y="5746.544943820225" as="targetPoint" />
          </mxGeometry>
        </mxCell>
        <mxCell id="yWv6oROBVAuWYho2UYFf-119" value="&lt;font style=&quot;font-size: 12px;&quot;&gt;Start&lt;/font&gt;" style="rounded=1;whiteSpace=wrap;html=1;arcSize=37;fillColor=#cce5ff;strokeColor=#36393d;fontFamily=Calibri;fontSize=12;" vertex="1" parent="1">
          <mxGeometry x="446.25" y="5598" width="110" height="40" as="geometry" />
        </mxCell>
        <mxCell id="yWv6oROBVAuWYho2UYFf-120" value="&lt;span style=&quot;font-size: 12px;&quot;&gt;end&lt;/span&gt;" style="rounded=1;whiteSpace=wrap;html=1;fillColor=#d5e8d4;strokeColor=#82b366;fontFamily=Calibri;fontSize=12;" vertex="1" parent="1">
          <mxGeometry x="429.25" y="5931" width="146.75" height="57" as="geometry" />
        </mxCell>
        <mxCell id="yWv6oROBVAuWYho2UYFf-121" value="" style="edgeStyle=orthogonalEdgeStyle;rounded=0;orthogonalLoop=1;jettySize=auto;html=1;fontFamily=Calibri;fontSize=12;" edge="1" parent="1" source="yWv6oROBVAuWYho2UYFf-122" target="yWv6oROBVAuWYho2UYFf-120">
          <mxGeometry relative="1" as="geometry" />
        </mxCell>
        <mxCell id="yWv6oROBVAuWYho2UYFf-122" value="&lt;font style=&quot;font-size: 12px;&quot;&gt;CLEAR the prescaler&lt;/font&gt;" style="rounded=0;whiteSpace=wrap;html=1;fillColor=#d5e8d4;strokeColor=#82b366;fontFamily=Calibri;fontSize=12;" vertex="1" parent="1">
          <mxGeometry x="425.5" y="5749" width="153.5" height="83" as="geometry" />
        </mxCell>
        <mxCell id="yWv6oROBVAuWYho2UYFf-123" value="TIMER_TMR1Stop" style="text;html=1;strokeColor=none;fillColor=none;align=center;verticalAlign=middle;whiteSpace=wrap;rounded=0;" vertex="1" parent="1">
          <mxGeometry x="476.5" y="5555" width="60" height="30" as="geometry" />
        </mxCell>
        <mxCell id="yWv6oROBVAuWYho2UYFf-124" value="ICU_RisingEdgeCapture" style="text;whiteSpace=wrap;html=1;fontFamily=Calibri;fontSize=12;align=center;" vertex="1" parent="1">
          <mxGeometry x="-736.5" y="7479" width="98" height="22" as="geometry" />
        </mxCell>
        <mxCell id="yWv6oROBVAuWYho2UYFf-125" value="" style="edgeStyle=orthogonalEdgeStyle;rounded=0;orthogonalLoop=1;jettySize=auto;html=1;fontFamily=Calibri;fontSize=12;entryX=0.5;entryY=0;entryDx=0;entryDy=0;" edge="1" parent="1" source="yWv6oROBVAuWYho2UYFf-126" target="yWv6oROBVAuWYho2UYFf-141">
          <mxGeometry relative="1" as="geometry">
            <mxPoint x="-642.952380952381" y="7652.051282051281" as="targetPoint" />
          </mxGeometry>
        </mxCell>
        <mxCell id="yWv6oROBVAuWYho2UYFf-126" value="" style="rounded=1;whiteSpace=wrap;html=1;arcSize=37;fillColor=#dae8fc;strokeColor=#6c8ebf;fontFamily=Calibri;fontSize=12;" vertex="1" parent="1">
          <mxGeometry x="-770.5" y="7512" width="171" height="60" as="geometry" />
        </mxCell>
        <mxCell id="yWv6oROBVAuWYho2UYFf-130" value="&lt;font style=&quot;font-size: 12px;&quot;&gt;&amp;nbsp; &amp;nbsp;Start&lt;span style=&quot;white-space: pre; font-size: 12px;&quot;&gt; &lt;/span&gt;&lt;/font&gt;" style="text;whiteSpace=wrap;html=1;align=center;fontFamily=Calibri;fontSize=12;" vertex="1" parent="1">
          <mxGeometry x="-750.5" y="7522" width="126" height="40" as="geometry" />
        </mxCell>
        <mxCell id="yWv6oROBVAuWYho2UYFf-148" value="" style="edgeStyle=orthogonalEdgeStyle;rounded=0;orthogonalLoop=1;jettySize=auto;html=1;" edge="1" parent="1" source="yWv6oROBVAuWYho2UYFf-134" target="yWv6oROBVAuWYho2UYFf-147">
          <mxGeometry relative="1" as="geometry" />
        </mxCell>
        <mxCell id="yWv6oROBVAuWYho2UYFf-134" value="&lt;font style=&quot;font-size: 12px;&quot;&gt;Set the global edge flag to be RISING&lt;/font&gt;" style="rounded=0;whiteSpace=wrap;html=1;fillColor=#d5e8d4;strokeColor=#82b366;fontFamily=Calibri;fontSize=12;" vertex="1" parent="1">
          <mxGeometry x="-760" y="7906" width="150" height="57" as="geometry" />
        </mxCell>
        <mxCell id="yWv6oROBVAuWYho2UYFf-137" value="" style="edgeStyle=orthogonalEdgeStyle;rounded=0;orthogonalLoop=1;jettySize=auto;html=1;fontFamily=Calibri;fontSize=12;" edge="1" parent="1" target="yWv6oROBVAuWYho2UYFf-136">
          <mxGeometry relative="1" as="geometry">
            <mxPoint x="-378" y="7963" as="targetPoint" />
            <Array as="points">
              <mxPoint x="12" y="7963" />
            </Array>
            <mxPoint x="12" y="7760" as="sourcePoint" />
          </mxGeometry>
        </mxCell>
        <mxCell id="yWv6oROBVAuWYho2UYFf-140" value="TIMER_TMR1NormalModeInit" style="swimlane;whiteSpace=wrap;html=1;fillColor=#f5f5f5;gradientColor=#b3b3b3;strokeColor=#666666;" vertex="1" parent="1">
          <mxGeometry x="-795" y="5547" width="894" height="754" as="geometry" />
        </mxCell>
        <mxCell id="yWv6oROBVAuWYho2UYFf-143" value="" style="edgeStyle=orthogonalEdgeStyle;rounded=0;orthogonalLoop=1;jettySize=auto;html=1;" edge="1" parent="1" source="yWv6oROBVAuWYho2UYFf-141" target="yWv6oROBVAuWYho2UYFf-142">
          <mxGeometry relative="1" as="geometry" />
        </mxCell>
        <mxCell id="yWv6oROBVAuWYho2UYFf-141" value="TIMER_TMR1NormalModeInit" style="shape=process;whiteSpace=wrap;html=1;backgroundOutline=1;fillColor=#f5f5f5;gradientColor=#b3b3b3;strokeColor=#666666;" vertex="1" parent="1">
          <mxGeometry x="-793" y="7612" width="216" height="60" as="geometry" />
        </mxCell>
        <mxCell id="yWv6oROBVAuWYho2UYFf-145" value="" style="edgeStyle=orthogonalEdgeStyle;rounded=0;orthogonalLoop=1;jettySize=auto;html=1;" edge="1" parent="1" source="yWv6oROBVAuWYho2UYFf-142" target="yWv6oROBVAuWYho2UYFf-144">
          <mxGeometry relative="1" as="geometry" />
        </mxCell>
        <mxCell id="yWv6oROBVAuWYho2UYFf-142" value="TIMER_TMR1Stop" style="shape=process;whiteSpace=wrap;html=1;backgroundOutline=1;fillColor=#f5f5f5;gradientColor=#b3b3b3;strokeColor=#666666;" vertex="1" parent="1">
          <mxGeometry x="-793" y="7707" width="216" height="60" as="geometry" />
        </mxCell>
        <mxCell id="yWv6oROBVAuWYho2UYFf-146" value="" style="edgeStyle=orthogonalEdgeStyle;rounded=0;orthogonalLoop=1;jettySize=auto;html=1;" edge="1" parent="1" source="yWv6oROBVAuWYho2UYFf-144" target="yWv6oROBVAuWYho2UYFf-134">
          <mxGeometry relative="1" as="geometry" />
        </mxCell>
        <mxCell id="yWv6oROBVAuWYho2UYFf-144" value="EXT_EnablePIE(RisingEdge)" style="shape=process;whiteSpace=wrap;html=1;backgroundOutline=1;fillColor=#f5f5f5;gradientColor=#b3b3b3;strokeColor=#666666;" vertex="1" parent="1">
          <mxGeometry x="-793" y="7808" width="216" height="60" as="geometry" />
        </mxCell>
        <mxCell id="yWv6oROBVAuWYho2UYFf-150" value="" style="edgeStyle=orthogonalEdgeStyle;rounded=0;orthogonalLoop=1;jettySize=auto;html=1;" edge="1" parent="1" source="yWv6oROBVAuWYho2UYFf-147" target="yWv6oROBVAuWYho2UYFf-149">
          <mxGeometry relative="1" as="geometry" />
        </mxCell>
        <mxCell id="yWv6oROBVAuWYho2UYFf-147" value="TIMER_TMR1Stop" style="shape=process;whiteSpace=wrap;html=1;backgroundOutline=1;fillColor=#f5f5f5;gradientColor=#b3b3b3;strokeColor=#666666;" vertex="1" parent="1">
          <mxGeometry x="-793" y="7996" width="216" height="60" as="geometry" />
        </mxCell>
        <mxCell id="yWv6oROBVAuWYho2UYFf-149" value="&lt;font style=&quot;font-size: 12px;&quot;&gt;Return &lt;br style=&quot;font-size: 12px;&quot;&gt;ICU_OK&lt;/font&gt;" style="rounded=1;whiteSpace=wrap;html=1;fillColor=#d5e8d4;strokeColor=#82b366;fontFamily=Calibri;fontSize=12;" vertex="1" parent="1">
          <mxGeometry x="-773.5" y="8093" width="177" height="75" as="geometry" />
        </mxCell>
        <mxCell id="yWv6oROBVAuWYho2UYFf-151" value="ICU_getValue" style="text;whiteSpace=wrap;html=1;fontFamily=Calibri;fontSize=12;align=center;" vertex="1" parent="1">
          <mxGeometry x="-459.5" y="7479" width="98" height="22" as="geometry" />
        </mxCell>
        <mxCell id="yWv6oROBVAuWYho2UYFf-152" value="" style="edgeStyle=orthogonalEdgeStyle;rounded=0;orthogonalLoop=1;jettySize=auto;html=1;fontFamily=Calibri;fontSize=12;" edge="1" parent="1" source="yWv6oROBVAuWYho2UYFf-153">
          <mxGeometry relative="1" as="geometry">
            <mxPoint x="-408" y="7654" as="targetPoint" />
          </mxGeometry>
        </mxCell>
        <mxCell id="yWv6oROBVAuWYho2UYFf-153" value="" style="rounded=1;whiteSpace=wrap;html=1;arcSize=37;fillColor=#dae8fc;strokeColor=#6c8ebf;fontFamily=Calibri;fontSize=12;" vertex="1" parent="1">
          <mxGeometry x="-493.5" y="7512" width="171" height="60" as="geometry" />
        </mxCell>
        <mxCell id="yWv6oROBVAuWYho2UYFf-154" value="&lt;font style=&quot;font-size: 12px;&quot;&gt;&amp;nbsp; &amp;nbsp;Start&lt;span style=&quot;white-space: pre; font-size: 12px;&quot;&gt; &lt;/span&gt;&lt;/font&gt;" style="text;whiteSpace=wrap;html=1;align=center;fontFamily=Calibri;fontSize=12;" vertex="1" parent="1">
          <mxGeometry x="-473.5" y="7522" width="126" height="40" as="geometry" />
        </mxCell>
        <mxCell id="yWv6oROBVAuWYho2UYFf-166" value="" style="edgeStyle=orthogonalEdgeStyle;rounded=0;orthogonalLoop=1;jettySize=auto;html=1;" edge="1" parent="1" source="yWv6oROBVAuWYho2UYFf-156" target="yWv6oROBVAuWYho2UYFf-165">
          <mxGeometry relative="1" as="geometry" />
        </mxCell>
        <mxCell id="yWv6oROBVAuWYho2UYFf-156" value="&lt;font style=&quot;font-size: 12px;&quot;&gt;load the ICU value into the passed argument&lt;/font&gt;" style="rounded=0;whiteSpace=wrap;html=1;fillColor=#d5e8d4;strokeColor=#82b366;fontFamily=Calibri;fontSize=12;" vertex="1" parent="1">
          <mxGeometry x="-482" y="7655" width="150" height="57" as="geometry" />
        </mxCell>
        <mxCell id="yWv6oROBVAuWYho2UYFf-165" value="&lt;font style=&quot;font-size: 12px;&quot;&gt;Return &lt;br style=&quot;font-size: 12px;&quot;&gt;ICU_OK&lt;/font&gt;" style="rounded=1;whiteSpace=wrap;html=1;fillColor=#d5e8d4;strokeColor=#82b366;fontFamily=Calibri;fontSize=12;" vertex="1" parent="1">
          <mxGeometry x="-466.5" y="7773" width="119" height="44" as="geometry" />
        </mxCell>
        <mxCell id="yWv6oROBVAuWYho2UYFf-167" value="" style="edgeStyle=orthogonalEdgeStyle;rounded=0;orthogonalLoop=1;jettySize=auto;html=1;fontFamily=Calibri;fontSize=12;entryX=0.5;entryY=0;entryDx=0;entryDy=0;" edge="1" parent="1" source="yWv6oROBVAuWYho2UYFf-168">
          <mxGeometry relative="1" as="geometry">
            <mxPoint x="-93" y="7594" as="targetPoint" />
          </mxGeometry>
        </mxCell>
        <mxCell id="yWv6oROBVAuWYho2UYFf-168" value="" style="rounded=1;whiteSpace=wrap;html=1;arcSize=37;fillColor=#dae8fc;strokeColor=#6c8ebf;fontFamily=Calibri;fontSize=12;" vertex="1" parent="1">
          <mxGeometry x="-178.5" y="7494" width="171" height="60" as="geometry" />
        </mxCell>
        <mxCell id="yWv6oROBVAuWYho2UYFf-169" value="&lt;font style=&quot;font-size: 12px;&quot;&gt;&amp;nbsp; &amp;nbsp;Start&lt;span style=&quot;white-space: pre; font-size: 12px;&quot;&gt; &lt;/span&gt;&lt;/font&gt;" style="text;whiteSpace=wrap;html=1;align=center;fontFamily=Calibri;fontSize=12;" vertex="1" parent="1">
          <mxGeometry x="-158.5" y="7504" width="126" height="40" as="geometry" />
        </mxCell>
        <mxCell id="yWv6oROBVAuWYho2UYFf-185" value="" style="edgeStyle=orthogonalEdgeStyle;rounded=0;orthogonalLoop=1;jettySize=auto;html=1;" edge="1" parent="1" source="yWv6oROBVAuWYho2UYFf-171" target="yWv6oROBVAuWYho2UYFf-184">
          <mxGeometry relative="1" as="geometry" />
        </mxCell>
        <mxCell id="yWv6oROBVAuWYho2UYFf-171" value="&lt;font style=&quot;font-size: 12px;&quot;&gt;Set the global interrupt bit&lt;/font&gt;" style="rounded=0;whiteSpace=wrap;html=1;fillColor=#d5e8d4;strokeColor=#82b366;fontFamily=Calibri;fontSize=12;" vertex="1" parent="1">
          <mxGeometry x="-168" y="7595" width="150" height="57" as="geometry" />
        </mxCell>
        <mxCell id="yWv6oROBVAuWYho2UYFf-180" value="&lt;font style=&quot;font-size: 12px;&quot;&gt;Return &lt;br style=&quot;font-size: 12px;&quot;&gt;ICU_OK&lt;/font&gt;" style="rounded=1;whiteSpace=wrap;html=1;fillColor=#d5e8d4;strokeColor=#82b366;fontFamily=Calibri;fontSize=12;" vertex="1" parent="1">
          <mxGeometry x="-184" y="8069" width="177" height="75" as="geometry" />
        </mxCell>
        <mxCell id="yWv6oROBVAuWYho2UYFf-181" value="EXT_enablePIE" style="text;whiteSpace=wrap;html=1;fontFamily=Calibri;fontSize=12;align=center;" vertex="1" parent="1">
          <mxGeometry x="-142" y="7457" width="98" height="22" as="geometry" />
        </mxCell>
        <mxCell id="yWv6oROBVAuWYho2UYFf-187" value="" style="edgeStyle=orthogonalEdgeStyle;rounded=0;orthogonalLoop=1;jettySize=auto;html=1;" edge="1" parent="1" source="yWv6oROBVAuWYho2UYFf-184" target="yWv6oROBVAuWYho2UYFf-186">
          <mxGeometry relative="1" as="geometry" />
        </mxCell>
        <mxCell id="yWv6oROBVAuWYho2UYFf-184" value="&lt;font style=&quot;font-size: 12px;&quot;&gt;Set the EXTI2 enable bit&lt;/font&gt;" style="rounded=0;whiteSpace=wrap;html=1;fillColor=#d5e8d4;strokeColor=#82b366;fontFamily=Calibri;fontSize=12;" vertex="1" parent="1">
          <mxGeometry x="-168" y="7688" width="150" height="57" as="geometry" />
        </mxCell>
        <mxCell id="yWv6oROBVAuWYho2UYFf-189" value="" style="edgeStyle=orthogonalEdgeStyle;rounded=0;orthogonalLoop=1;jettySize=auto;html=1;" edge="1" parent="1" source="yWv6oROBVAuWYho2UYFf-186">
          <mxGeometry relative="1" as="geometry">
            <mxPoint x="34" y="7931" as="targetPoint" />
          </mxGeometry>
        </mxCell>
        <mxCell id="yWv6oROBVAuWYho2UYFf-191" value="" style="edgeStyle=orthogonalEdgeStyle;rounded=0;orthogonalLoop=1;jettySize=auto;html=1;" edge="1" parent="1" source="yWv6oROBVAuWYho2UYFf-186" target="yWv6oROBVAuWYho2UYFf-192">
          <mxGeometry relative="1" as="geometry">
            <mxPoint x="-223" y="7855" as="targetPoint" />
          </mxGeometry>
        </mxCell>
        <mxCell id="yWv6oROBVAuWYho2UYFf-186" value="&lt;span style=&quot;font-size: 12px;&quot;&gt;SensControl&lt;/span&gt;" style="rhombus;whiteSpace=wrap;html=1;fillColor=#fff2cc;strokeColor=#d6b656;fontFamily=Calibri;fontSize=12;" vertex="1" parent="1">
          <mxGeometry x="-148" y="7785" width="110" height="140" as="geometry" />
        </mxCell>
        <mxCell id="yWv6oROBVAuWYho2UYFf-197" value="" style="edgeStyle=orthogonalEdgeStyle;rounded=0;orthogonalLoop=1;jettySize=auto;html=1;entryX=0;entryY=0.5;entryDx=0;entryDy=0;" edge="1" parent="1" source="yWv6oROBVAuWYho2UYFf-192" target="yWv6oROBVAuWYho2UYFf-180">
          <mxGeometry relative="1" as="geometry">
            <mxPoint x="-228" y="8069.5" as="targetPoint" />
          </mxGeometry>
        </mxCell>
        <mxCell id="yWv6oROBVAuWYho2UYFf-192" value="&lt;font style=&quot;font-size: 12px;&quot;&gt;Set the sens control bit&lt;/font&gt;" style="rounded=0;whiteSpace=wrap;html=1;fillColor=#d5e8d4;strokeColor=#82b366;fontFamily=Calibri;fontSize=12;" vertex="1" parent="1">
          <mxGeometry x="-303" y="7934" width="150" height="57" as="geometry" />
        </mxCell>
        <mxCell id="yWv6oROBVAuWYho2UYFf-194" value="" style="edgeStyle=orthogonalEdgeStyle;rounded=0;orthogonalLoop=1;jettySize=auto;html=1;entryX=1;entryY=0.5;entryDx=0;entryDy=0;" edge="1" parent="1" source="yWv6oROBVAuWYho2UYFf-193" target="yWv6oROBVAuWYho2UYFf-180">
          <mxGeometry relative="1" as="geometry" />
        </mxCell>
        <mxCell id="yWv6oROBVAuWYho2UYFf-193" value="Clear the sens control bit" style="rounded=0;whiteSpace=wrap;html=1;fillColor=#d5e8d4;strokeColor=#82b366;fontFamily=Calibri;fontSize=12;" vertex="1" parent="1">
          <mxGeometry x="-41" y="7931" width="150" height="57" as="geometry" />
        </mxCell>
        <mxCell id="yWv6oROBVAuWYho2UYFf-198" value="" style="edgeStyle=orthogonalEdgeStyle;rounded=0;orthogonalLoop=1;jettySize=auto;html=1;fontFamily=Calibri;fontSize=12;entryX=0.5;entryY=0;entryDx=0;entryDy=0;" edge="1" parent="1" source="yWv6oROBVAuWYho2UYFf-199">
          <mxGeometry relative="1" as="geometry">
            <mxPoint x="400" y="7591" as="targetPoint" />
          </mxGeometry>
        </mxCell>
        <mxCell id="yWv6oROBVAuWYho2UYFf-199" value="" style="rounded=1;whiteSpace=wrap;html=1;arcSize=37;fillColor=#dae8fc;strokeColor=#6c8ebf;fontFamily=Calibri;fontSize=12;" vertex="1" parent="1">
          <mxGeometry x="314.5" y="7491" width="171" height="60" as="geometry" />
        </mxCell>
        <mxCell id="yWv6oROBVAuWYho2UYFf-200" value="&lt;font style=&quot;font-size: 12px;&quot;&gt;&amp;nbsp; &amp;nbsp;Start&lt;span style=&quot;white-space: pre; font-size: 12px;&quot;&gt; &lt;/span&gt;&lt;/font&gt;" style="text;whiteSpace=wrap;html=1;align=center;fontFamily=Calibri;fontSize=12;" vertex="1" parent="1">
          <mxGeometry x="334.5" y="7501" width="126" height="40" as="geometry" />
        </mxCell>
        <mxCell id="yWv6oROBVAuWYho2UYFf-201" value="" style="edgeStyle=orthogonalEdgeStyle;rounded=0;orthogonalLoop=1;jettySize=auto;html=1;" edge="1" parent="1" source="yWv6oROBVAuWYho2UYFf-202" target="yWv6oROBVAuWYho2UYFf-206">
          <mxGeometry relative="1" as="geometry" />
        </mxCell>
        <mxCell id="yWv6oROBVAuWYho2UYFf-215" value="" style="edgeStyle=orthogonalEdgeStyle;rounded=0;orthogonalLoop=1;jettySize=auto;html=1;" edge="1" parent="1" source="yWv6oROBVAuWYho2UYFf-202" target="yWv6oROBVAuWYho2UYFf-209">
          <mxGeometry relative="1" as="geometry" />
        </mxCell>
        <mxCell id="yWv6oROBVAuWYho2UYFf-202" value="&lt;font style=&quot;font-size: 12px;&quot;&gt;Load the current timer value into temp var&lt;/font&gt;" style="rounded=0;whiteSpace=wrap;html=1;fillColor=#d5e8d4;strokeColor=#82b366;fontFamily=Calibri;fontSize=12;" vertex="1" parent="1">
          <mxGeometry x="325" y="7592" width="150" height="57" as="geometry" />
        </mxCell>
        <mxCell id="yWv6oROBVAuWYho2UYFf-203" value="&lt;font style=&quot;font-size: 12px;&quot;&gt;Return &lt;br style=&quot;font-size: 12px;&quot;&gt;ICU_OK&lt;/font&gt;" style="rounded=1;whiteSpace=wrap;html=1;fillColor=#d5e8d4;strokeColor=#82b366;fontFamily=Calibri;fontSize=12;" vertex="1" parent="1">
          <mxGeometry x="290" y="8319" width="177" height="75" as="geometry" />
        </mxCell>
        <mxCell id="yWv6oROBVAuWYho2UYFf-204" value="ISR(EXT_INT_2)" style="text;whiteSpace=wrap;html=1;fontFamily=Calibri;fontSize=12;align=center;" vertex="1" parent="1">
          <mxGeometry x="351" y="7454" width="98" height="22" as="geometry" />
        </mxCell>
        <mxCell id="yWv6oROBVAuWYho2UYFf-206" value="&lt;font style=&quot;font-size: 12px;&quot;&gt;Set the EXTI2 enable bit&lt;/font&gt;" style="rounded=0;whiteSpace=wrap;html=1;fillColor=#d5e8d4;strokeColor=#82b366;fontFamily=Calibri;fontSize=12;" vertex="1" parent="1">
          <mxGeometry x="610" y="7688" width="150" height="57" as="geometry" />
        </mxCell>
        <mxCell id="yWv6oROBVAuWYho2UYFf-207" value="" style="edgeStyle=orthogonalEdgeStyle;rounded=0;orthogonalLoop=1;jettySize=auto;html=1;" edge="1" parent="1" source="yWv6oROBVAuWYho2UYFf-209">
          <mxGeometry relative="1" as="geometry">
            <mxPoint x="528" y="7858" as="targetPoint" />
          </mxGeometry>
        </mxCell>
        <mxCell id="yWv6oROBVAuWYho2UYFf-208" value="" style="edgeStyle=orthogonalEdgeStyle;rounded=0;orthogonalLoop=1;jettySize=auto;html=1;" edge="1" parent="1" source="yWv6oROBVAuWYho2UYFf-209" target="yWv6oROBVAuWYho2UYFf-211">
          <mxGeometry relative="1" as="geometry">
            <mxPoint x="271" y="7782" as="targetPoint" />
          </mxGeometry>
        </mxCell>
        <mxCell id="yWv6oROBVAuWYho2UYFf-209" value="&lt;span style=&quot;font-size: 12px;&quot;&gt;SensControl&lt;/span&gt;" style="rhombus;whiteSpace=wrap;html=1;fillColor=#fff2cc;strokeColor=#d6b656;fontFamily=Calibri;fontSize=12;" vertex="1" parent="1">
          <mxGeometry x="345" y="7712" width="110" height="140" as="geometry" />
        </mxCell>
        <mxCell id="yWv6oROBVAuWYho2UYFf-223" value="" style="edgeStyle=orthogonalEdgeStyle;rounded=0;orthogonalLoop=1;jettySize=auto;html=1;" edge="1" parent="1" source="yWv6oROBVAuWYho2UYFf-211" target="yWv6oROBVAuWYho2UYFf-222">
          <mxGeometry relative="1" as="geometry" />
        </mxCell>
        <mxCell id="yWv6oROBVAuWYho2UYFf-211" value="Load the value of the temp var into RisingEdgeVar" style="rounded=0;whiteSpace=wrap;html=1;fillColor=#d5e8d4;strokeColor=#82b366;fontFamily=Calibri;fontSize=12;" vertex="1" parent="1">
          <mxGeometry x="191" y="7861" width="150" height="57" as="geometry" />
        </mxCell>
        <mxCell id="yWv6oROBVAuWYho2UYFf-229" value="" style="edgeStyle=orthogonalEdgeStyle;rounded=0;orthogonalLoop=1;jettySize=auto;html=1;" edge="1" parent="1" source="yWv6oROBVAuWYho2UYFf-213" target="yWv6oROBVAuWYho2UYFf-228">
          <mxGeometry relative="1" as="geometry" />
        </mxCell>
        <mxCell id="yWv6oROBVAuWYho2UYFf-213" value="Load the value of the temp var into FallingEdgeVar" style="rounded=0;whiteSpace=wrap;html=1;fillColor=#d5e8d4;strokeColor=#82b366;fontFamily=Calibri;fontSize=12;" vertex="1" parent="1">
          <mxGeometry x="455" y="7859" width="150" height="57" as="geometry" />
        </mxCell>
        <mxCell id="yWv6oROBVAuWYho2UYFf-216" value="Falling Edge" style="text;html=1;strokeColor=none;fillColor=none;align=center;verticalAlign=middle;whiteSpace=wrap;rounded=0;" vertex="1" parent="1">
          <mxGeometry x="-27" y="7822" width="60" height="30" as="geometry" />
        </mxCell>
        <mxCell id="yWv6oROBVAuWYho2UYFf-217" value="Rising&lt;br&gt;Edge" style="text;html=1;strokeColor=none;fillColor=none;align=center;verticalAlign=middle;whiteSpace=wrap;rounded=0;" vertex="1" parent="1">
          <mxGeometry x="-228" y="7820" width="60" height="30" as="geometry" />
        </mxCell>
        <mxCell id="yWv6oROBVAuWYho2UYFf-218" value="Falling Edge" style="text;html=1;strokeColor=none;fillColor=none;align=center;verticalAlign=middle;whiteSpace=wrap;rounded=0;" vertex="1" parent="1">
          <mxGeometry x="472.63" y="7750" width="60" height="30" as="geometry" />
        </mxCell>
        <mxCell id="yWv6oROBVAuWYho2UYFf-219" value="Rising&lt;br&gt;Edge" style="text;html=1;strokeColor=none;fillColor=none;align=center;verticalAlign=middle;whiteSpace=wrap;rounded=0;" vertex="1" parent="1">
          <mxGeometry x="273" y="7750" width="60" height="30" as="geometry" />
        </mxCell>
        <mxCell id="yWv6oROBVAuWYho2UYFf-236" value="" style="edgeStyle=orthogonalEdgeStyle;rounded=0;orthogonalLoop=1;jettySize=auto;html=1;entryX=0;entryY=0.5;entryDx=0;entryDy=0;" edge="1" parent="1" source="yWv6oROBVAuWYho2UYFf-220" target="yWv6oROBVAuWYho2UYFf-203">
          <mxGeometry relative="1" as="geometry" />
        </mxCell>
        <mxCell id="yWv6oROBVAuWYho2UYFf-220" value="Set the global edge flag to be FallingEdge" style="rounded=0;whiteSpace=wrap;html=1;fillColor=#d5e8d4;strokeColor=#82b366;fontFamily=Calibri;fontSize=12;" vertex="1" parent="1">
          <mxGeometry x="191" y="8217" width="150" height="57" as="geometry" />
        </mxCell>
        <mxCell id="yWv6oROBVAuWYho2UYFf-227" value="" style="edgeStyle=orthogonalEdgeStyle;rounded=0;orthogonalLoop=1;jettySize=auto;html=1;" edge="1" parent="1" source="yWv6oROBVAuWYho2UYFf-221" target="yWv6oROBVAuWYho2UYFf-220">
          <mxGeometry relative="1" as="geometry" />
        </mxCell>
        <mxCell id="yWv6oROBVAuWYho2UYFf-221" value="&lt;font style=&quot;font-size: 12px;&quot;&gt;Clear the overfolw&lt;/font&gt;" style="rounded=0;whiteSpace=wrap;html=1;fillColor=#d5e8d4;strokeColor=#82b366;fontFamily=Calibri;fontSize=12;" vertex="1" parent="1">
          <mxGeometry x="191" y="8135" width="150" height="57" as="geometry" />
        </mxCell>
        <mxCell id="yWv6oROBVAuWYho2UYFf-225" value="" style="edgeStyle=orthogonalEdgeStyle;rounded=0;orthogonalLoop=1;jettySize=auto;html=1;" edge="1" parent="1" source="yWv6oROBVAuWYho2UYFf-222" target="yWv6oROBVAuWYho2UYFf-224">
          <mxGeometry relative="1" as="geometry" />
        </mxCell>
        <mxCell id="yWv6oROBVAuWYho2UYFf-222" value="&lt;font style=&quot;font-size: 12px;&quot;&gt;Clear the timer&lt;/font&gt;" style="rounded=0;whiteSpace=wrap;html=1;fillColor=#d5e8d4;strokeColor=#82b366;fontFamily=Calibri;fontSize=12;" vertex="1" parent="1">
          <mxGeometry x="191" y="7952" width="150" height="57" as="geometry" />
        </mxCell>
        <mxCell id="yWv6oROBVAuWYho2UYFf-226" value="" style="edgeStyle=orthogonalEdgeStyle;rounded=0;orthogonalLoop=1;jettySize=auto;html=1;" edge="1" parent="1" source="yWv6oROBVAuWYho2UYFf-224" target="yWv6oROBVAuWYho2UYFf-221">
          <mxGeometry relative="1" as="geometry" />
        </mxCell>
        <mxCell id="yWv6oROBVAuWYho2UYFf-224" value="EXT_EnablePIE(FallingEdge)" style="shape=process;whiteSpace=wrap;html=1;backgroundOutline=1;fillColor=#f5f5f5;gradientColor=#b3b3b3;strokeColor=#666666;" vertex="1" parent="1">
          <mxGeometry x="158" y="8043" width="216" height="60" as="geometry" />
        </mxCell>
        <mxCell id="yWv6oROBVAuWYho2UYFf-231" value="" style="edgeStyle=orthogonalEdgeStyle;rounded=0;orthogonalLoop=1;jettySize=auto;html=1;" edge="1" parent="1" source="yWv6oROBVAuWYho2UYFf-228" target="yWv6oROBVAuWYho2UYFf-230">
          <mxGeometry relative="1" as="geometry" />
        </mxCell>
        <mxCell id="yWv6oROBVAuWYho2UYFf-228" value="&lt;font style=&quot;font-size: 12px;&quot;&gt;calculate and load the ICU value&lt;/font&gt;" style="rounded=0;whiteSpace=wrap;html=1;fillColor=#d5e8d4;strokeColor=#82b366;fontFamily=Calibri;fontSize=12;" vertex="1" parent="1">
          <mxGeometry x="455" y="7959" width="150" height="57" as="geometry" />
        </mxCell>
        <mxCell id="yWv6oROBVAuWYho2UYFf-233" value="" style="edgeStyle=orthogonalEdgeStyle;rounded=0;orthogonalLoop=1;jettySize=auto;html=1;" edge="1" parent="1" source="yWv6oROBVAuWYho2UYFf-230" target="yWv6oROBVAuWYho2UYFf-232">
          <mxGeometry relative="1" as="geometry" />
        </mxCell>
        <mxCell id="yWv6oROBVAuWYho2UYFf-230" value="TIMER_TMR1Stop" style="shape=process;whiteSpace=wrap;html=1;backgroundOutline=1;fillColor=#f5f5f5;gradientColor=#b3b3b3;strokeColor=#666666;" vertex="1" parent="1">
          <mxGeometry x="422" y="8047" width="216" height="60" as="geometry" />
        </mxCell>
        <mxCell id="yWv6oROBVAuWYho2UYFf-235" value="" style="edgeStyle=orthogonalEdgeStyle;rounded=0;orthogonalLoop=1;jettySize=auto;html=1;entryX=1;entryY=0.5;entryDx=0;entryDy=0;" edge="1" parent="1" source="yWv6oROBVAuWYho2UYFf-232" target="yWv6oROBVAuWYho2UYFf-203">
          <mxGeometry relative="1" as="geometry">
            <mxPoint x="530" y="8349.5" as="targetPoint" />
          </mxGeometry>
        </mxCell>
        <mxCell id="yWv6oROBVAuWYho2UYFf-232" value="&lt;font style=&quot;font-size: 12px;&quot;&gt;Set the globale ICU _flag&lt;/font&gt;" style="rounded=0;whiteSpace=wrap;html=1;fillColor=#d5e8d4;strokeColor=#82b366;fontFamily=Calibri;fontSize=12;" vertex="1" parent="1">
          <mxGeometry x="455" y="8214" width="150" height="57" as="geometry" />
        </mxCell>
      </root>
    </mxGraphModel>
  </diagram>
</mxfile>
